<?xml version="1.0" encoding="UTF-8"?>
<svg id="logo-icon" data-name="Logo-Black" xmlns="http://www.w3.org/2000/svg" viewBox="0 0 160 160">
  <path d="M122.44,28.41c5.15,3.03,9.87,6.98,13.93,11.81,6.54,7.8,10.51,16.9,11.97,26.28-3.07,8.98-8.56,17.26-16.35,23.8-14.59,12.24-33.75,15.45-50.68,10.23,9.01-1.59,17.75-5.51,25.26-11.81,18.02-15.12,23.68-39.48,15.87-60.31Z"/>
  <path d="M37.56,133.53c-5.15-3.03-9.87-6.98-13.93-11.81-6.54-7.8-10.51-16.9-11.97-26.28,3.07-8.98,8.56-17.26,16.35-23.8,14.59-12.24,33.75-15.45,50.68-10.23-9.01,1.59-17.75,5.51-25.26,11.81-18.02,15.12-23.68,39.48-15.87,60.31Z"/>
  <path d="M146.74,91.36c-.04,5.98-1.09,12.04-3.24,17.97-3.47,9.57-9.37,17.56-16.75,23.53-9.31,1.84-19.22,1.24-28.79-2.23-17.9-6.49-30.28-21.47-34.24-38.74,5.89,7,13.66,12.6,22.88,15.95,22.11,8.02,46.03.72,60.15-16.48Z"/>
  <path d="M104.22,144.04c-5.2,2.94-10.98,5.05-17.2,6.14-10.03,1.76-19.89.63-28.74-2.8-6.23-7.16-10.65-16.05-12.41-26.08-3.29-18.76,3.53-36.95,16.53-48.99-3.13,8.6-4.13,18.12-2.43,27.78,4.06,23.16,22.31,40.27,44.25,43.94Z"/>
  <path d="M55.85,21.12c11.34-2,22.51-.85,32.6,2.82,8.01,8.63,13.71,19.6,15.9,32.06,1.29,7.29,1.27,14.51.11,21.43-12.83-22.73-39-36.01-66.18-31.22-11.76,2.07-22.19,7.27-30.58,14.59,7.71-20.05,25.44-35.67,48.14-39.67Z"/>
  <path d="M36.07,22.74c-5.21.81-10.27,3.02-14.6,6.65-4.59,3.85-7.74,8.78-9.38,14.11-1.23-6.99.04-14.29,3.7-20.49,6.56-2.46,13.75-2.51,20.28-.27Z"/>
</svg>
